<svg width="29" height="29" viewBox="0 0 29 29" fill="none" xmlns="http://www.w3.org/2000/svg">
<path d="M14.5 22.9583C13.8327 22.9583 13.2917 22.4173 13.2917 21.75V15.7083H7.25C6.58266 15.7083 6.04167 15.1673 6.04167 14.5C6.04167 13.8327 6.58266 13.2917 7.25 13.2917H13.2917V7.25C13.2917 6.58266 13.8327 6.04167 14.5 6.04167C15.1673 6.04167 15.7083 6.58266 15.7083 7.25V13.2917H21.75C22.4173 13.2917 22.9583 13.8327 22.9583 14.5C22.9583 15.1673 22.4173 15.7083 21.75 15.7083H15.7083V21.75C15.7083 22.4173 15.1673 22.9583 14.5 22.9583Z" fill="#4B7F6A"/>
<path fill-rule="evenodd" clip-rule="evenodd" d="M29 14.5C29 22.5081 22.5081 29 14.5 29C6.49187 29 0 22.5081 0 14.5C0 6.49187 6.49187 0 14.5 0C22.5081 0 29 6.49187 29 14.5ZM26.5833 14.5C26.5833 21.1734 21.1734 26.5833 14.5 26.5833C7.82656 26.5833 2.41667 21.1734 2.41667 14.5C2.41667 7.82656 7.82656 2.41667 14.5 2.41667C21.1734 2.41667 26.5833 7.82656 26.5833 14.5Z" fill="#4B7F6A"/>
</svg>
