<svg width="87" height="18" viewBox="0 0 87 18" fill="none" xmlns="http://www.w3.org/2000/svg">
<rect width="87" height="18" rx="9" fill="#84C2AD"/>
<path d="M25.45 13H26.41L23.9 6.07H22.85L20.33 13H21.29L21.85 11.45H24.89L25.45 13ZM24.63 10.71H22.11L23.37 7.19L24.63 10.71ZM26.8583 7.52L29.0083 13H30.0683L32.2183 7.52H31.2483L29.5483 12.16L27.8383 7.52H26.8583ZM32.7738 10.24C32.7738 11.94 33.9038 13.09 35.3638 13.09C36.3738 13.09 37.0838 12.57 37.4138 11.98V13H38.3338V7.52H37.4138V8.52C37.0938 7.95 36.3938 7.43 35.3738 7.43C33.9038 7.43 32.7738 8.53 32.7738 10.24ZM37.4138 10.25C37.4138 11.54 36.5538 12.29 35.5538 12.29C34.5538 12.29 33.7038 11.53 33.7038 10.24C33.7038 8.95 34.5538 8.22 35.5538 8.22C36.5538 8.22 37.4138 8.98 37.4138 10.25ZM39.8716 13H40.7816V7.52H39.8716V13ZM40.3416 6.63C40.6716 6.63 40.9416 6.36 40.9416 6.01C40.9416 5.66 40.6716 5.39 40.3416 5.39C39.9916 5.39 39.7216 5.66 39.7216 6.01C39.7216 6.36 39.9916 6.63 40.3416 6.63ZM42.3325 13H43.2425V5.6H42.3325V13ZM44.4534 10.24C44.4534 11.94 45.5834 13.09 47.0434 13.09C48.0534 13.09 48.7634 12.57 49.0934 11.98V13H50.0134V7.52H49.0934V8.52C48.7734 7.95 48.0734 7.43 47.0534 7.43C45.5834 7.43 44.4534 8.53 44.4534 10.24ZM49.0934 10.25C49.0934 11.54 48.2334 12.29 47.2334 12.29C46.2334 12.29 45.3834 11.53 45.3834 10.24C45.3834 8.95 46.2334 8.22 47.2334 8.22C48.2334 8.22 49.0934 8.98 49.0934 10.25ZM52.4613 8.54V5.6H51.5513V13H52.4613V11.99C52.8013 12.59 53.5113 13.09 54.5113 13.09C55.9813 13.09 57.1113 11.94 57.1113 10.24C57.1113 8.53 55.9913 7.43 54.5113 7.43C53.5413 7.43 52.8113 7.93 52.4613 8.54ZM56.1813 10.24C56.1813 11.53 55.3313 12.29 54.3213 12.29C53.3313 12.29 52.4613 11.54 52.4613 10.25C52.4613 8.98 53.3313 8.22 54.3213 8.22C55.3313 8.22 56.1813 8.95 56.1813 10.24ZM58.3091 13H59.2191V5.6H58.3091V13ZM63.1 8.2C64.04 8.2 64.84 8.79 64.83 9.86H61.37C61.47 8.79 62.21 8.2 63.1 8.2ZM65.66 11.31H64.68C64.48 11.9 63.96 12.32 63.14 12.32C62.21 12.32 61.43 11.71 61.36 10.6H65.74C65.76 10.41 65.77 10.25 65.77 10.05C65.77 8.55 64.73 7.43 63.14 7.43C61.54 7.43 60.43 8.52 60.43 10.25C60.43 11.99 61.58 13.09 63.14 13.09C64.5 13.09 65.38 12.31 65.66 11.31Z" fill="white"/>
</svg>
