<svg width="18" height="18" viewBox="0 0 18 18" fill="none" xmlns="http://www.w3.org/2000/svg">
<path fill-rule="evenodd" clip-rule="evenodd" d="M9 0C9.41421 0 9.75 0.335786 9.75 0.75V11.6893L12.9697 8.46967C13.2626 8.17678 13.7374 8.17678 14.0303 8.46967C14.3232 8.76256 14.3232 9.23744 14.0303 9.53033L9 14.5607L3.96967 9.53033C3.67678 9.23744 3.67678 8.76256 3.96967 8.46967C4.26256 8.17678 4.73744 8.17678 5.03033 8.46967L8.25 11.6893V0.75C8.25 0.335786 8.58578 0 9 0ZM0.75 12C1.16421 12 1.5 12.3358 1.5 12.75V16.5H16.5V12.75C16.5 12.3358 16.8358 12 17.25 12C17.6642 12 18 12.3358 18 12.75V16.5C18 17.3284 17.3284 18 16.5 18H1.5C0.671573 18 0 17.3284 0 16.5V12.75C0 12.3358 0.335786 12 0.75 12Z" fill="black"/>
</svg>
