<svg width="14" height="14" viewBox="0 0 14 14" fill="none" xmlns="http://www.w3.org/2000/svg">
<path fill-rule="evenodd" clip-rule="evenodd" d="M11.5318 0.554833C10.7862 -0.184945 9.57743 -0.184944 8.83189 0.554833L1.35289 7.97596L0.233894 11.307C-0.0148471 12.0474 0.695086 12.7519 1.44131 12.505L4.7983 11.3947L12.2773 3.97358C13.0228 3.2338 13.0228 2.03439 12.2773 1.29461L11.5318 0.554833ZM9.73184 1.44782C9.98036 1.20123 10.3833 1.20123 10.6318 1.44782L11.3773 2.1876C11.6259 2.43419 11.6259 2.834 11.3773 3.08059L10.8182 3.63542L9.17268 2.00266L9.73184 1.44782ZM8.27273 2.89564L9.91823 4.52841L4.45455 9.94981L2.80905 8.31705L8.27273 2.89564ZM2.18719 9.48599L3.27649 10.5669L1.64254 11.1073L2.18719 9.48599Z" fill="black" fill-opacity="0.7"/>
<path d="M0.636364 12.7371C0.28491 12.7371 0 13.0198 0 13.3686C0 13.7173 0.28491 14 0.636364 14L13.3636 14C13.7151 14 14 13.7173 14 13.3686C14 13.0198 13.7151 12.7371 13.3636 12.7371L0.636364 12.7371Z" fill="black" fill-opacity="0.7"/>
</svg>
