<svg width="21" height="15" viewBox="0 0 21 15" fill="none" xmlns="http://www.w3.org/2000/svg">
<path d="M0.415049 10.7013C0.185801 10.1988 0.407281 9.60568 0.909739 9.37643L19.4259 0.928354C19.9284 0.699106 20.5216 0.920587 20.7508 1.42304C20.9801 1.9255 20.7586 2.51867 20.2561 2.74791L1.73992 11.196C1.23746 11.4252 0.644297 11.2038 0.415049 10.7013Z" fill="#D9D9D9"/>
<path d="M5.41505 11.7633C5.1858 11.2609 5.40728 10.6677 5.90974 10.4385L16.9227 5.41379C17.4251 5.18454 18.0183 5.40602 18.2475 5.90848C18.4768 6.41094 18.2553 7.0041 17.7528 7.23335L6.73992 12.258C6.23746 12.4873 5.6443 12.2658 5.41505 11.7633Z" fill="#D9D9D9"/>
<path d="M9.58485 13.4627C9.3556 12.9603 9.57708 12.3671 10.0795 12.1379L16.0491 9.41423C16.5516 9.18498 17.1448 9.40646 17.374 9.90892C17.6032 10.4114 17.3818 11.0045 16.8793 11.2338L10.9097 13.9574C10.4073 14.1867 9.8141 13.9652 9.58485 13.4627Z" fill="#D9D9D9"/>
</svg>
