<svg width="38" height="38" viewBox="0 0 38 38" fill="none" xmlns="http://www.w3.org/2000/svg">
<path d="M26.3343 11.9552C26.1559 11.6959 26.0878 11.3764 26.1449 11.0669C26.2019 10.7574 26.3795 10.4832 26.6386 10.3045C28.1823 9.23875 30.5989 9.23875 32.1427 10.3045C32.8848 10.8196 34.203 10.8196 34.9511 10.3045C35.2103 10.1398 35.5233 10.0819 35.8243 10.1431C36.1253 10.2042 36.3909 10.3796 36.5654 10.6324C36.7398 10.8852 36.8095 11.1958 36.7598 11.4989C36.7101 11.802 36.5449 12.0741 36.2989 12.258C35.4758 12.7795 34.5213 13.0564 33.5469 13.0564C32.5724 13.0564 31.618 12.7795 30.7948 12.258C30.0527 11.7429 28.7345 11.7429 27.9864 12.258C27.8581 12.3466 27.7135 12.4091 27.561 12.4418C27.4085 12.4745 27.251 12.4769 27.0976 12.4488C26.9442 12.4207 26.7978 12.3626 26.6669 12.2779C26.5359 12.1932 26.4229 12.0835 26.3343 11.9552ZM34.9511 15.0545C34.2089 15.5696 32.8908 15.5696 32.1427 15.0545C30.5989 13.9887 28.1823 13.9887 26.6386 15.0545C26.5038 15.1402 26.3876 15.2522 26.2971 15.3838C26.2066 15.5154 26.1435 15.6639 26.1117 15.8204C26.0799 15.977 26.08 16.1383 26.112 16.2948C26.144 16.4513 26.2073 16.5997 26.298 16.7312C26.3887 16.8627 26.505 16.9745 26.64 17.06C26.7749 17.1455 26.9257 17.2028 27.0834 17.2287C27.241 17.2545 27.4022 17.2483 27.5574 17.2104C27.7125 17.1724 27.8585 17.1036 27.9864 17.008C28.7286 16.4929 30.0467 16.4929 30.7948 17.008C31.618 17.5295 32.5724 17.8064 33.5469 17.8064C34.5213 17.8064 35.4758 17.5295 36.2989 17.008C36.5449 16.8241 36.7101 16.552 36.7598 16.2489C36.8095 15.9458 36.7398 15.6352 36.5654 15.3824C36.3909 15.1296 36.1253 14.9542 35.8243 14.8931C35.5233 14.8319 35.2103 14.8898 34.9511 15.0545ZM26.125 28.5C26.1259 29.9296 25.7582 31.3352 25.0572 32.5811C24.3563 33.8271 23.3459 34.8712 22.1236 35.6126C20.9014 36.354 19.5085 36.7677 18.0797 36.8136C16.6509 36.8596 15.2344 36.5363 13.967 35.8749C12.6996 35.2136 11.6242 34.2365 10.8446 33.0382C10.0651 31.8399 9.60776 30.4608 9.51683 29.0341C9.42591 27.6075 9.70445 26.1815 10.3256 24.8939C10.9467 23.6063 11.8893 22.5006 13.0625 21.6838V5.9375C13.0625 4.67772 13.5629 3.46954 14.4537 2.57874C15.3445 1.68795 16.5527 1.1875 17.8125 1.1875C19.0723 1.1875 20.2805 1.68795 21.1713 2.57874C22.0621 3.46954 22.5625 4.67772 22.5625 5.9375V21.6838C23.6614 22.4489 24.5592 23.4683 25.1795 24.6551C25.7998 25.8419 26.1241 27.1609 26.125 28.5ZM20.1875 5.9375C20.1875 5.30761 19.9373 4.70352 19.4919 4.25812C19.0465 3.81272 18.4424 3.5625 17.8125 3.5625C17.1826 3.5625 16.5785 3.81272 16.1331 4.25812C15.6877 4.70352 15.4375 5.30761 15.4375 5.9375V11.875H20.1875V5.9375Z" fill="#301206"/>
</svg>
