<svg width="37" height="27" viewBox="0 0 37 27" fill="none" xmlns="http://www.w3.org/2000/svg">
<path fill-rule="evenodd" clip-rule="evenodd" d="M13.5468 8.86719C13.5468 10.9383 11.8679 12.6172 9.79681 12.6172C7.72575 12.6172 6.04681 10.9383 6.04681 8.86719C6.04681 6.79612 7.72575 5.11719 9.79681 5.11719C11.8679 5.11719 13.5468 6.79612 13.5468 8.86719ZM12.0468 8.86719C12.0468 10.1098 11.0395 11.1172 9.79681 11.1172C8.55417 11.1172 7.54681 10.1098 7.54681 8.86719C7.54681 7.62455 8.55417 6.61719 9.79681 6.61719C11.0395 6.61719 12.0468 7.62455 12.0468 8.86719Z" fill="white"/>
<path d="M4.54681 19.3672C4.54681 18.7904 4.78544 17.8578 5.53785 17.0741C6.27204 16.3093 7.56292 15.6172 9.79681 15.6172C12.0307 15.6172 13.3216 16.3093 14.0558 17.0741C14.8082 17.8578 15.0468 18.7904 15.0468 19.3672C15.0468 19.7814 15.3826 20.1172 15.7968 20.1172C16.211 20.1172 16.5468 19.7814 16.5468 19.3672C16.5468 18.444 16.1854 17.1265 15.1379 16.0353C14.072 14.9251 12.3629 14.1172 9.79681 14.1172C7.23071 14.1172 5.52159 14.9251 4.45577 16.0353C3.40819 17.1265 3.04681 18.444 3.04681 19.3672C3.04681 19.7814 3.3826 20.1172 3.79681 20.1172C4.21103 20.1172 4.54681 19.7814 4.54681 19.3672Z" fill="white"/>
<path fill-rule="evenodd" clip-rule="evenodd" d="M16.231 12.854C17.539 12.854 18.5994 11.7937 18.5994 10.4856C18.5994 9.17757 17.539 8.11719 16.231 8.11719C14.923 8.11719 13.8626 9.17757 13.8626 10.4856C13.8626 11.7937 14.923 12.854 16.231 12.854ZM16.231 11.729C16.9177 11.729 17.4744 11.1723 17.4744 10.4856C17.4744 9.79889 16.9177 9.24219 16.231 9.24219C15.5443 9.24219 14.9876 9.79889 14.9876 10.4856C14.9876 11.1723 15.5443 11.729 16.231 11.729Z" fill="white"/>
<path d="M15.3616 15.0914C15.6178 15.0493 15.9064 15.0251 16.231 15.0251C17.5807 15.0251 18.3189 15.4409 18.7215 15.8603C19.1424 16.2987 19.2705 16.8167 19.2705 17.1172C19.2705 17.5314 19.6062 17.8672 20.0205 17.8672C20.4347 17.8672 20.7705 17.5314 20.7705 17.1172C20.7705 16.4703 20.5196 15.5673 19.8036 14.8215C19.0694 14.0567 17.9129 13.5251 16.231 13.5251C15.832 13.5251 15.4618 13.5549 15.1188 13.6111C14.7101 13.6782 14.433 14.0639 14.5001 14.4726C14.5671 14.8814 14.9528 15.1584 15.3616 15.0914Z" fill="white"/>
</svg>
